<?xml version="1.0" encoding="UTF-8" standalone="no"?>
<svg
   version="1.2"
   viewBox="0 0 72 72"
   width="72"
   height="72"
   id="svg1"
   sodipodi:docname="NN_logo_tempel_alt_black.svg"
   inkscape:version="1.4 (86a8ad7, 2024-10-11)"
   inkscape:export-filename="NN_logo_tempel_alt_black.png"
   inkscape:export-xdpi="96"
   inkscape:export-ydpi="96"
   xmlns:inkscape="http://www.inkscape.org/namespaces/inkscape"
   xmlns:sodipodi="http://sodipodi.sourceforge.net/DTD/sodipodi-0.dtd"
   xmlns="http://www.w3.org/2000/svg"
   xmlns:svg="http://www.w3.org/2000/svg"
   xmlns:rdf="http://www.w3.org/1999/02/22-rdf-syntax-ns#"
   xmlns:cc="http://creativecommons.org/ns#"
   xmlns:dc="http://purl.org/dc/elements/1.1/">
  <defs
     id="defs1" />
  <sodipodi:namedview
     id="namedview1"
     pagecolor="#ffffff"
     bordercolor="#000000"
     borderopacity="0.25"
     inkscape:showpageshadow="2"
     inkscape:pageopacity="0.0"
     inkscape:pagecheckerboard="0"
     inkscape:deskcolor="#d1d1d1"
     inkscape:zoom="7.4166667"
     inkscape:cx="36"
     inkscape:cy="27.101124"
     inkscape:window-width="1193"
     inkscape:window-height="1217"
     inkscape:window-x="1615"
     inkscape:window-y="138"
     inkscape:window-maximized="0"
     inkscape:current-layer="svg1" />
  <title
     id="title1">New Project</title>
  <style
     id="style1">
		.s0 { fill: #18ffbb } 
		.s1 { fill: #ffffff } 
		.s2 { fill: #000000 } 
	</style>
  <g
     id="Layer 1">
    <path
       id="Shape 1"
       fill-rule="evenodd"
       class="s0"
       d="m46.9 41.1c-11.3 19.8-42.3-11.6 2.9-11.5" />
    <path
       id="Naturally Nate"
       class="s1"
       aria-label="Naturally Nate"
       d="m5 37.7v2.3q0 0.2-0.1 0.2-0.1 0-0.3-0.1-0.1-0.1-0.2-0.2-0.6-0.3-1.5-0.9-1.4-0.8-1.6-1v2q-0.1 0.2-0.2 0.2-0.2 0-0.2-0.2v-2.3q0.1-0.2 0.2-0.2 0.1 0 0.2 0.1 0.1 0.1 0.2 0.2 0.7 0.3 1.6 0.9 0.8 0.5 1.6 1v-2q0-0.2 0.2-0.2 0.1 0 0.1 0.2zm3.1 0.2q0 0 0 0 0.1 0 0.1 0 0 0.1 0.3 0.4 0.4 0.5 1.1 1.3 0 0 0 0.1-0.1 0.1-0.1 0.1-0.1 0-0.2-0.1-0.1-0.1-0.1-0.2h-2.1q-0.1 0.1-0.1 0.2-0.1 0.1-0.2 0.1-0.1 0-0.1-0.1 0 0 0-0.1 0 0 0.1-0.1 0-0.1 0.1-0.1 0.2-0.3 0.5-0.7 0.2-0.3 0.7-0.8zm-0.8 1.3h1.7l-0.9-1zm7.4-1h-1.2v1.5q-0.1 0.1-0.2 0.1-0.1 0-0.1-0.1v-1.5h-1.2q-0.1 0-0.1-0.1 0-0.1 0.1-0.2h2.7q0.1 0 0.1 0.2 0 0.1-0.1 0.1zm5.3-0.2v0.8q0 0-0.1 0.2 0 0.1 0 0.1-0.3 0.4-0.7 0.5-0.3 0.2-0.7 0.2-0.4 0-0.7-0.2-0.4-0.1-0.6-0.5-0.1-0.1-0.1-0.1 0-0.2 0-0.2v-0.8q0 0 0 0 0.1-0.1 0.1-0.1 0 0 0.1 0.1 0 0 0 0v0.8q0 0 0 0 0 0 0 0.1 0.1 0.1 0.2 0.2 0.1 0.2 0.2 0.2 0.4 0.2 0.8 0.2 0.4 0 0.7-0.1 0.3-0.2 0.4-0.4 0.1-0.2 0.1-0.2v-0.8q0 0 0.1 0 0-0.1 0-0.1 0.1 0 0.1 0.1 0.1 0 0.1 0zm5.1 0.4q0 0.3-0.1 0.4-0.1 0.2-0.4 0.2h-0.4q0.3 0.2 0.9 0.5 0 0.1 0 0.1 0 0.1 0 0.1-0.1 0.1-0.1 0.1 0 0-0.1 0-0.6-0.4-1.2-0.8h-1.2v0.7q-0.1 0.1-0.1 0.1-0.1 0-0.2-0.1v-1.6q0-0.1 0.1-0.1 0-0.1 0.1-0.1h2.2q0.3 0.1 0.4 0.2 0.1 0.2 0.1 0.3zm-0.5-0.2h-2.1v0.5h2.1q0.1 0 0.2-0.1 0.1 0 0.1-0.1 0-0.1-0.1-0.2-0.1-0.1-0.2-0.1zm32.2-0.5v2.3q-0.1 0.2-0.2 0.2-0.1 0-0.2-0.1-0.1-0.1-0.2-0.2-0.6-0.3-1.6-0.9-1.3-0.8-1.6-1v2q0 0.2-0.2 0.2-0.1 0-0.2-0.2v-2.3q0.1-0.2 0.2-0.2 0.1 0 0.3 0.1 0.1 0.1 0.2 0.2 0.6 0.3 1.5 0.9 0.8 0.5 1.6 1v-2q0-0.2 0.2-0.2 0.1 0 0.2 0.2zm3 0.2q0 0 0.1 0 0 0 0.1 0 0 0.1 0.2 0.4 0.5 0.5 1.1 1.3 0.1 0 0 0.1 0 0.1-0.1 0.1-0.1 0-0.1-0.1-0.1-0.1-0.2-0.2h-2.1q0 0.1-0.1 0.2-0.1 0.1-0.2 0.1 0 0-0.1-0.1 0 0 0 0 0-0.1 0.1-0.2 0.1-0.1 0.1-0.1 0.3-0.3 0.6-0.7 0.2-0.2 0.6-0.8zm-0.8 1.3h1.7l-0.8-0.9zm7.3-1.1h-1.2v1.5q0 0.1-0.1 0.1-0.1 0-0.2-0.1v-1.5h-1.2q-0.1 0-0.1-0.1 0-0.1 0.1-0.2h2.7q0.1 0.1 0.1 0.2 0 0.1-0.1 0.1zm5.2 1.6h-2.7q0 0-0.1-0.1 0 0 0 0v-1.6q0-0.1 0-0.1 0.1-0.1 0.1-0.1h2.7q0.1 0.1 0.1 0.2 0 0.1-0.1 0.1h-2.5v0.5h2.5q0.1 0.1 0.1 0.2 0 0-0.1 0.1h-2.5v0.5h2.5q0.1 0.1 0.1 0.2 0 0-0.1 0.1z" />
    <path
       id="path1"
       class="s2"
       aria-label="Naturally Nate"
       d="m28.8 37.9q0 0 0 0 0.1 0 0.1 0 0 0.1 0.3 0.4 0.4 0.5 1.1 1.3 0 0 0 0.1-0.1 0.1-0.1 0.1-0.1 0-0.2-0.1-0.1-0.1-0.1-0.2h-2.1q-0.1 0.1-0.2 0.2 0 0.1-0.1 0.1-0.1 0-0.1-0.1 0 0 0-0.1 0 0 0-0.1 0.1-0.1 0.2-0.1 0.2-0.3 0.5-0.7 0.2-0.3 0.7-0.8zm-0.8 1.3h1.7l-0.9-1zm7.4 0.6h-2.7q0 0-0.1-0.1 0 0 0 0v-1.7q0-0.1 0.1-0.1 0.1 0 0.1 0.2v1.4h2.6q0.1 0.1 0.1 0.1 0 0.1-0.1 0.2zm5.1 0h-2.6q-0.1 0-0.1-0.1-0.1 0-0.1 0v-1.7q0.1-0.1 0.2-0.1 0.1 0 0.1 0.2v1.4h2.5q0.1 0.1 0.1 0.1 0 0.1-0.1 0.2zm5.2-1.9q0.1 0.1 0.1 0.1 0 0.1-0.1 0.2-0.1 0.1-1.2 0.7v0.8q0 0.1-0.1 0.1-0.1 0-0.2-0.1v-0.8q0 0-0.2-0.1-0.1-0.1-0.2-0.1 0-0.1-0.1-0.1 0 0-0.2-0.1l-0.4-0.2q0-0.1-0.1-0.1-0.1-0.1-0.1-0.1 0-0.1 0-0.1 0.1-0.1 0.1-0.1 0.1 0 0.1 0 0.1 0.1 1.3 0.8 0 0 0.2-0.1 0.4-0.3 1-0.7 0.1 0 0.1 0z" />
  </g>
  <text
     xml:space="preserve"
     style="font-size:17.3333px;text-align:start;writing-mode:lr-tb;direction:ltr;text-anchor:start;fill:#1a1a1a;stroke-width:1.1709"
     x="5.4665661"
     y="68.879211"
     id="text1"
     transform="scale(1.1708965,0.85404645)"><tspan
       sodipodi:role="line"
       id="tspan1"
       x="5.4665661"
       y="68.879211"
       style="font-style:normal;font-variant:normal;font-weight:normal;font-stretch:normal;font-size:17.3333px;font-family:'Austin Stylish Signature';-inkscape-font-specification:'Austin Stylish Signature';fill:#e6e6e6;stroke-width:1.1709"> Body Temple</tspan></text>
  <metadata
     id="metadata2">
    <rdf:RDF>
      <cc:Work
         rdf:about="">
        <dc:title>New Project</dc:title>
      </cc:Work>
    </rdf:RDF>
  </metadata>
</svg>
